<svg width="1920" height="1080" viewBox="0 0 1920 1080" fill="none" xmlns="http://www.w3.org/2000/svg">
<g id="xbox">
<path id="xbox-x2" d="M550 609H508L594 729L500 858H543L616.5 757.5L689 858H732L637.5 729L723.5 609H682.5L616 699L550 609Z" fill="#F7F7F7"/>
<path id="xbox-x1" d="M1239 608H1197L1283 728L1189 857H1232L1305.5 756.5L1378 857H1421L1326.5 728L1412.5 608H1371.5L1305 698L1239 608Z" fill="#F7F7F7"/>
<path id="xbox-b" fill-rule="evenodd" clip-rule="evenodd" d="M885 609.181C867.627 607.443 837.904 607.976 805.135 608.563C790.748 608.821 775.774 609.089 761 609.181L760.5 714.181H728L703 748.681H760.5V857.681H884.5C893.355 860.123 957.5 852.181 959 794.681C960.167 749.956 934.692 737.74 923.331 732.292C920.086 730.736 917.992 729.732 918 728.681C918.008 727.507 919.981 725.992 922.928 723.73C931.863 716.872 949.752 703.139 949 671.181C948 628.681 910 611.681 885 609.181ZM798 716.181V641.681H875.5C899.759 647.403 910.667 652.487 912 674.181C911.466 697.271 909.346 709.355 875.5 716.681H799L798 716.181ZM877.5 747.181H798V825.181C798 825.181 853.5 826.681 879 825.181C904.5 823.681 925.059 814.235 921 781.681C918.974 763.986 912.347 748.982 877.5 747.181Z" fill="#F7F7F7"/>
<path id="xbox-o" fill-rule="evenodd" clip-rule="evenodd" d="M1086.71 605.049C1165.71 607.049 1203.21 671.55 1203.21 740.049C1203.21 808.549 1158.71 865.05 1077.71 865.05C996.706 865.05 955.708 790.05 959.207 726.049C962.706 662.049 1007.71 603.05 1086.71 605.049ZM1164.21 730.049C1162.21 692.049 1142.21 638.55 1084.71 638.55C1027.21 638.55 998.39 680.941 998.707 734.049C995.535 751.911 1008.21 830.05 1078.71 830.05C1149.21 830.05 1166.21 768.05 1164.21 730.049Z" fill="#F7F7F7"/>
<g id="xbox-logo">
<path id="Vector 12" d="M1099.39 517.5C1111.05 480.992 1053.15 400.95 958.886 324.5C851.137 408.708 806.588 496.94 818.886 516.5C883.843 584.969 971.144 568.538 958.263 573C983.112 571.355 1033.98 574.565 1099.39 517.5Z" fill="#F7F7F7" stroke="white" stroke-linejoin="round"/>
<path id="Vector 13" d="M1105.29 218.881C1092.13 213.885 1069.8 220.405 1015.79 272.881C1042.58 307.146 1056.58 326.917 1080.29 362.881C1127.37 446.4 1127.78 464.633 1123.29 491.38C1148.05 464.332 1166.78 396.381 1165.79 381.5C1164.79 366.619 1171.94 284.861 1105.29 218.881Z" fill="#F7F7F7" stroke="white" stroke-linejoin="round"/>
<path id="Vector 14" d="M809.786 221C823.046 210.946 852.425 225.857 903.786 273.5C865.196 319.547 844.61 346.829 818.786 400.5C790.718 450.48 793.044 464.843 794.75 491.379C772.851 458.139 761.688 431.963 753.75 393.879C749.485 312.799 762.784 282.272 809.786 221Z" fill="#F7F7F7" stroke="white" stroke-linejoin="round"/>
<path id="Vector 15" d="M959.286 159C898.01 163.082 878.132 172.89 848.786 191C871.937 189.199 884.956 188.228 926.286 204.5L944.286 211.5L959.286 221L973.786 211.5L995.286 203C1024.93 190.799 1042.24 187.485 1068.79 190.5C1026.79 167.106 1002.85 159.684 959.286 159Z" fill="#F7F7F7" stroke="white" stroke-linejoin="round"/>
</g>
</g>
</svg>
